<svg xmlns="http://www.w3.org/2000/svg" xmlns:xlink="http://www.w3.org/1999/xlink" width="243" zoomAndPan="magnify" viewBox="0 0 182.25 80.249996" height="107" preserveAspectRatio="xMidYMid meet" version="1.0"><defs><g/></defs><g fill="#ff004f" fill-opacity="1"><g transform="translate(0.789223, 50.946713)"><g><path d="M 10.71875 0.234375 C 7.988281 0.234375 5.742188 -0.410156 3.984375 -1.703125 C 2.234375 -3.003906 1.296875 -4.867188 1.171875 -7.296875 L 8.125 -7.296875 C 8.1875 -6.472656 8.425781 -5.867188 8.84375 -5.484375 C 9.269531 -5.109375 9.816406 -4.921875 10.484375 -4.921875 C 11.085938 -4.921875 11.582031 -5.070312 11.96875 -5.375 C 12.351562 -5.675781 12.546875 -6.09375 12.546875 -6.625 C 12.546875 -7.3125 12.222656 -7.84375 11.578125 -8.21875 C 10.941406 -8.601562 9.898438 -9.023438 8.453125 -9.484375 C 6.921875 -9.992188 5.679688 -10.488281 4.734375 -10.96875 C 3.796875 -11.445312 2.976562 -12.144531 2.28125 -13.0625 C 1.582031 -13.988281 1.234375 -15.195312 1.234375 -16.6875 C 1.234375 -18.195312 1.609375 -19.488281 2.359375 -20.5625 C 3.117188 -21.632812 4.160156 -22.445312 5.484375 -23 C 6.816406 -23.5625 8.328125 -23.84375 10.015625 -23.84375 C 12.753906 -23.84375 14.9375 -23.203125 16.5625 -21.921875 C 18.195312 -20.648438 19.066406 -18.859375 19.171875 -16.546875 L 12.09375 -16.546875 C 12.0625 -17.253906 11.84375 -17.785156 11.4375 -18.140625 C 11.03125 -18.492188 10.503906 -18.671875 9.859375 -18.671875 C 9.367188 -18.671875 8.96875 -18.523438 8.65625 -18.234375 C 8.34375 -17.953125 8.1875 -17.546875 8.1875 -17.015625 C 8.1875 -16.566406 8.359375 -16.179688 8.703125 -15.859375 C 9.046875 -15.546875 9.472656 -15.269531 9.984375 -15.03125 C 10.492188 -14.800781 11.25 -14.507812 12.25 -14.15625 C 13.738281 -13.644531 14.960938 -13.140625 15.921875 -12.640625 C 16.890625 -12.140625 17.722656 -11.4375 18.421875 -10.53125 C 19.128906 -9.632812 19.484375 -8.5 19.484375 -7.125 C 19.484375 -5.726562 19.128906 -4.472656 18.421875 -3.359375 C 17.722656 -2.253906 16.710938 -1.378906 15.390625 -0.734375 C 14.078125 -0.0859375 12.519531 0.234375 10.71875 0.234375 Z M 10.71875 0.234375 "/></g></g></g><g fill="#ffffff" fill-opacity="1"><g transform="translate(21.415839, 50.946713)"><g><path d="M 14.15625 -18.84375 C 16.28125 -18.84375 17.96875 -18.125 19.21875 -16.6875 C 20.476562 -15.257812 21.109375 -13.328125 21.109375 -10.890625 L 21.109375 0 L 14.578125 0 L 14.578125 -10.015625 C 14.578125 -11.085938 14.300781 -11.925781 13.75 -12.53125 C 13.195312 -13.144531 12.453125 -13.453125 11.515625 -13.453125 C 10.546875 -13.453125 9.78125 -13.144531 9.21875 -12.53125 C 8.664062 -11.925781 8.390625 -11.085938 8.390625 -10.015625 L 8.390625 0 L 1.859375 0 L 1.859375 -24.640625 L 8.390625 -24.640625 L 8.390625 -16.015625 C 8.960938 -16.859375 9.742188 -17.539062 10.734375 -18.0625 C 11.722656 -18.582031 12.863281 -18.84375 14.15625 -18.84375 Z M 14.15625 -18.84375 "/></g></g></g><g fill="#ffffff" fill-opacity="1"><g transform="translate(44.249066, 50.946713)"><g><path d="M 20.984375 -18.671875 L 20.984375 0 L 14.421875 0 L 14.421875 -2.65625 C 13.859375 -1.820312 13.085938 -1.140625 12.109375 -0.609375 C 11.140625 -0.0859375 10.019531 0.171875 8.75 0.171875 C 6.582031 0.171875 4.867188 -0.539062 3.609375 -1.96875 C 2.359375 -3.40625 1.734375 -5.359375 1.734375 -7.828125 L 1.734375 -18.671875 L 8.21875 -18.671875 L 8.21875 -8.65625 C 8.21875 -7.59375 8.5 -6.753906 9.0625 -6.140625 C 9.632812 -5.535156 10.390625 -5.234375 11.328125 -5.234375 C 12.273438 -5.234375 13.023438 -5.535156 13.578125 -6.140625 C 14.140625 -6.753906 14.421875 -7.59375 14.421875 -8.65625 L 14.421875 -18.671875 Z M 20.984375 -18.671875 "/></g></g></g><g fill="#ffffff" fill-opacity="1"><g transform="translate(67.082294, 50.946713)"><g><path d="M 8.390625 -16.078125 C 8.898438 -16.972656 9.617188 -17.664062 10.546875 -18.15625 C 11.484375 -18.65625 12.582031 -18.90625 13.84375 -18.90625 C 15.332031 -18.90625 16.679688 -18.515625 17.890625 -17.734375 C 19.109375 -16.960938 20.066406 -15.851562 20.765625 -14.40625 C 21.460938 -12.96875 21.8125 -11.285156 21.8125 -9.359375 C 21.8125 -7.421875 21.460938 -5.722656 20.765625 -4.265625 C 20.066406 -2.816406 19.109375 -1.703125 17.890625 -0.921875 C 16.679688 -0.148438 15.332031 0.234375 13.84375 0.234375 C 12.582031 0.234375 11.484375 -0.015625 10.546875 -0.515625 C 9.617188 -1.015625 8.898438 -1.707031 8.390625 -2.59375 L 8.390625 0 L 1.859375 0 L 1.859375 -24.640625 L 8.390625 -24.640625 Z M 15.1875 -9.359375 C 15.1875 -10.578125 14.859375 -11.523438 14.203125 -12.203125 C 13.546875 -12.878906 12.738281 -13.21875 11.78125 -13.21875 C 10.832031 -13.21875 10.03125 -12.875 9.375 -12.1875 C 8.71875 -11.5 8.390625 -10.554688 8.390625 -9.359375 C 8.390625 -8.140625 8.71875 -7.179688 9.375 -6.484375 C 10.03125 -5.796875 10.832031 -5.453125 11.78125 -5.453125 C 12.738281 -5.453125 13.546875 -5.800781 14.203125 -6.5 C 14.859375 -7.207031 15.1875 -8.160156 15.1875 -9.359375 Z M 15.1875 -9.359375 "/></g></g></g><g fill="#ffffff" fill-opacity="1"><g transform="translate(89.715809, 50.946713)"><g><path d="M 14.15625 -18.84375 C 16.28125 -18.84375 17.96875 -18.125 19.21875 -16.6875 C 20.476562 -15.257812 21.109375 -13.328125 21.109375 -10.890625 L 21.109375 0 L 14.578125 0 L 14.578125 -10.015625 C 14.578125 -11.085938 14.300781 -11.925781 13.75 -12.53125 C 13.195312 -13.144531 12.453125 -13.453125 11.515625 -13.453125 C 10.546875 -13.453125 9.78125 -13.144531 9.21875 -12.53125 C 8.664062 -11.925781 8.390625 -11.085938 8.390625 -10.015625 L 8.390625 0 L 1.859375 0 L 1.859375 -24.640625 L 8.390625 -24.640625 L 8.390625 -16.015625 C 8.960938 -16.859375 9.742188 -17.539062 10.734375 -18.0625 C 11.722656 -18.582031 12.863281 -18.84375 14.15625 -18.84375 Z M 14.15625 -18.84375 "/></g></g></g><g fill="#ffffff" fill-opacity="1"><g transform="translate(112.549036, 50.946713)"><g><path d="M 0.796875 -9.359375 C 0.796875 -11.285156 1.144531 -12.96875 1.84375 -14.40625 C 2.539062 -15.851562 3.492188 -16.960938 4.703125 -17.734375 C 5.921875 -18.515625 7.269531 -18.90625 8.75 -18.90625 C 10.039062 -18.90625 11.148438 -18.648438 12.078125 -18.140625 C 13.015625 -17.628906 13.738281 -16.941406 14.25 -16.078125 L 14.25 -18.671875 L 20.78125 -18.671875 L 20.78125 0 L 14.25 0 L 14.25 -2.59375 C 13.738281 -1.726562 13.007812 -1.039062 12.0625 -0.53125 C 11.125 -0.0195312 10.019531 0.234375 8.75 0.234375 C 7.269531 0.234375 5.921875 -0.148438 4.703125 -0.921875 C 3.492188 -1.703125 2.539062 -2.816406 1.84375 -4.265625 C 1.144531 -5.722656 0.796875 -7.421875 0.796875 -9.359375 Z M 14.25 -9.359375 C 14.25 -10.554688 13.921875 -11.5 13.265625 -12.1875 C 12.609375 -12.875 11.804688 -13.21875 10.859375 -13.21875 C 9.878906 -13.21875 9.066406 -12.878906 8.421875 -12.203125 C 7.773438 -11.523438 7.453125 -10.578125 7.453125 -9.359375 C 7.453125 -8.160156 7.773438 -7.207031 8.421875 -6.5 C 9.066406 -5.800781 9.878906 -5.453125 10.859375 -5.453125 C 11.804688 -5.453125 12.609375 -5.796875 13.265625 -6.484375 C 13.921875 -7.179688 14.25 -8.140625 14.25 -9.359375 Z M 14.25 -9.359375 "/></g></g></g><g fill="#ffffff" fill-opacity="1"><g transform="translate(135.182551, 50.946713)"><g><path d="M 26.265625 -18.84375 C 28.617188 -18.84375 30.46875 -18.128906 31.8125 -16.703125 C 33.15625 -15.285156 33.828125 -13.347656 33.828125 -10.890625 L 33.828125 0 L 27.296875 0 L 27.296875 -10.015625 C 27.296875 -11.015625 27.019531 -11.789062 26.46875 -12.34375 C 25.914062 -12.90625 25.160156 -13.1875 24.203125 -13.1875 C 23.253906 -13.1875 22.5 -12.90625 21.9375 -12.34375 C 21.382812 -11.789062 21.109375 -11.015625 21.109375 -10.015625 L 21.109375 0 L 14.578125 0 L 14.578125 -10.015625 C 14.578125 -11.015625 14.304688 -11.789062 13.765625 -12.34375 C 13.222656 -12.90625 12.472656 -13.1875 11.515625 -13.1875 C 10.546875 -13.1875 9.78125 -12.90625 9.21875 -12.34375 C 8.664062 -11.789062 8.390625 -11.015625 8.390625 -10.015625 L 8.390625 0 L 1.859375 0 L 1.859375 -18.671875 L 8.390625 -18.671875 L 8.390625 -16.21875 C 8.960938 -17.019531 9.707031 -17.65625 10.625 -18.125 C 11.550781 -18.601562 12.613281 -18.84375 13.8125 -18.84375 C 15.1875 -18.84375 16.410156 -18.539062 17.484375 -17.9375 C 18.566406 -17.34375 19.421875 -16.503906 20.046875 -15.421875 C 20.710938 -16.441406 21.585938 -17.265625 22.671875 -17.890625 C 23.765625 -18.523438 24.960938 -18.84375 26.265625 -18.84375 Z M 26.265625 -18.84375 "/></g></g></g><g fill="#ffffff" fill-opacity="1"><g transform="translate(170.697196, 50.946713)"><g><path d="M 5.03125 0.265625 C 3.875 0.265625 2.945312 -0.046875 2.25 -0.671875 C 1.550781 -1.304688 1.203125 -2.113281 1.203125 -3.09375 C 1.203125 -4.070312 1.550781 -4.882812 2.25 -5.53125 C 2.945312 -6.175781 3.875 -6.5 5.03125 -6.5 C 6.15625 -6.5 7.066406 -6.175781 7.765625 -5.53125 C 8.472656 -4.882812 8.828125 -4.070312 8.828125 -3.09375 C 8.828125 -2.144531 8.472656 -1.347656 7.765625 -0.703125 C 7.066406 -0.0546875 6.15625 0.265625 5.03125 0.265625 Z M 5.03125 0.265625 "/></g></g></g></svg>